<?xml version="1.0" encoding="utf-8"?>
<!-- Generator: Adobe Illustrator 24.3.0, SVG Export Plug-In . SVG Version: 6.00 Build 0)  -->
<svg version="1.1" id="Layer_1" xmlns="http://www.w3.org/2000/svg" xmlns:xlink="http://www.w3.org/1999/xlink" x="0px" y="0px"
	 viewBox="0 0 283.46 283.46" style="enable-background:new 0 0 283.46 283.46;" xml:space="preserve">
<style type="text/css">
	.st0{fill:#5D453F;}
</style>
<g>
	<path class="st0" d="M135.05,28.35c4.58,0,9.16,0,13.73,0c0.57,0.12,1.13,0.32,1.71,0.36c17.04,1.28,33.05,6.04,47.73,14.77
		c30.16,17.93,48.66,44.16,55.16,78.7c0.77,4.11,1.17,8.3,1.74,12.45c0,4.58,0,9.15,0,13.73c-0.13,0.71-0.27,1.42-0.38,2.13
		c-0.91,5.82-1.42,11.73-2.78,17.45c-16.08,67.94-89.57,105.33-153.9,78.39c-49.1-20.56-77.02-71.54-68.05-124.27
		c7.74-45.54,43.9-82.61,89.3-91.43C124.51,29.6,129.8,29.09,135.05,28.35z M138.68,183.41c10.87-0.42,18.62-0.6,26.35-1.07
		c5.51-0.34,11.13-0.56,16.48-1.78c8.02-1.83,13.65-6.41,15-15.32c2.25-14.77,2.58-29.52,0.42-44.31
		c-0.62-4.22-1.04-8.51-4.26-11.84c-3.8-3.94-8.42-6.2-13.8-6.79c-19.79-2.18-39.63-2.52-59.48-1.25
		c-5.81,0.37-11.71,0.61-17.37,1.82c-7.37,1.58-13.27,5.49-14.76,13.68c-2.91,15.97-2.96,31.97-0.45,48.01
		c0.65,4.19,1.82,8.03,5.13,10.94c3.54,3.11,7.63,5.21,12.29,5.58C116.72,182.06,129.25,182.78,138.68,183.41z"/>
	<path class="st0" d="M163.53,141.71c-11.95,7.34-23.48,14.41-35.28,21.66c0-14.55,0-28.71,0-43.31
		C140.07,127.31,151.63,134.41,163.53,141.71z"/>
</g>
</svg>
