<?xml version="1.0" encoding="utf-8"?>
<!-- Generator: Adobe Illustrator 24.3.0, SVG Export Plug-In . SVG Version: 6.00 Build 0)  -->
<svg version="1.1" id="Layer_1" xmlns="http://www.w3.org/2000/svg" xmlns:xlink="http://www.w3.org/1999/xlink" x="0px" y="0px"
	 viewBox="0 0 283.46 283.46" style="enable-background:new 0 0 283.46 283.46;" xml:space="preserve">
<style type="text/css">
	.st0{fill:#5D453F;}
</style>
<path class="st0" d="M255.12,133.73c0,5.31,0,10.63,0,15.94c-0.15,0.64-0.34,1.27-0.43,1.92c-0.52,3.79-0.79,7.63-1.54,11.38
	c-5.56,27.85-19.38,50.8-41.84,68.16c-26.9,20.79-57.42,27.98-90.81,21.92c-24.32-4.42-45.04-15.97-61.75-34.19
	c-24.17-26.35-33.85-57.53-29.33-92.9c2.81-21.95,11.8-41.39,26.32-58.12c17.63-20.31,39.7-33,66.24-37.74
	c3.9-0.7,7.84-1.17,11.77-1.75c5.32,0,10.63,0,15.95,0c3.56,0.48,7.15,0.85,10.69,1.46c20.56,3.55,38.91,11.92,54.75,25.53
	c20.59,17.68,33.44,39.88,38.24,66.63C254.08,125.87,254.54,129.81,255.12,133.73z M144.75,77.14c0,1.05,0,1.93,0,2.8
	c-0.01,28.18-0.01,56.36-0.03,84.54c0,1.54-0.11,3.1-0.31,4.62c-1.25,9.39-9.4,16.41-18.99,16.4c-9.55-0.01-17.94-7.36-19.05-16.69
	c-1.13-9.52,4.8-18.66,14.01-20.8c3.48-0.81,7.23-0.5,10.99-0.7c0-6.46,0-13.42,0-20.77c-3.2,0-6.29-0.2-9.34,0.03
	c-23.38,1.8-40.06,22.67-36.65,45.74c3.43,23.21,26.82,38.73,49.61,32.92c18.76-4.78,30.88-20.29,30.89-39.68
	c0.01-14.53-0.09-29.07-0.14-43.6c0-0.76,0-1.52,0-2.71c10.04,7.22,20.63,11.16,32.63,11.03c0-7.12,0-13.94,0-20.75
	c-17.23-0.51-31.68-13.15-32.79-32.38C158.74,77.14,151.91,77.14,144.75,77.14z"/>
</svg>
