<?xml version="1.0" encoding="utf-8"?>
<!-- Generator: Adobe Illustrator 24.3.0, SVG Export Plug-In . SVG Version: 6.00 Build 0)  -->
<svg version="1.1" id="Layer_1" xmlns="http://www.w3.org/2000/svg" xmlns:xlink="http://www.w3.org/1999/xlink" x="0px" y="0px"
	 viewBox="0 0 283.46 283.46" style="enable-background:new 0 0 283.46 283.46;" xml:space="preserve">
<style type="text/css">
	.st0{fill:#5D453F;}
</style>
<g>
	<path class="st0" d="M134.64,28.35c4.72,0,9.45,0,14.17,0c3.79,0.49,7.61,0.83,11.37,1.49c27.1,4.73,49.87,17.35,67.64,38.35
		c22.49,26.57,31.16,57.39,25.74,91.73c-4.69,29.72-19.48,53.87-43.41,72.07c-24.77,18.83-52.89,26.08-83.72,22.07
		c-22.61-2.94-42.53-12.2-59.59-27.34c-19.7-17.49-32.01-39.25-36.72-65.21c-0.76-4.19-1.19-8.45-1.77-12.67c0-4.72,0-9.45,0-14.17
		c0.34-2.77,0.63-5.55,1.03-8.31c3.57-24.71,13.99-46.1,31.48-63.92C77.83,45.13,98.3,34.29,122.2,30.09
		C126.32,29.36,130.49,28.92,134.64,28.35z M124.15,145.7c0,22.02,0,43.76,0,65.63c9.18,0,18.14,0,27.37,0c0-21.91,0-43.7,0-65.69
		c6.28,0,12.3,0,18.41,0c0.79-7.77,1.57-15.35,2.36-23.14c-3.7,0-7.09,0-10.47,0c-3.38,0-6.76,0-10.35,0c0-4.36,0-8.48,0-12.59
		c0.01-5.65,1.76-7.39,7.42-7.4c4.26,0,8.52,0,12.91,0c0-7.59,0-14.93,0-22.32c-0.32-0.09-0.6-0.23-0.88-0.23
		c-7.08-0.02-14.19-0.38-21.24,0.03c-14.28,0.83-22.71,7.98-24.87,21.48c-0.96,5.99-0.52,12.21-0.7,18.32c-0.03,0.85,0,1.69,0,2.81
		c-4.51,0-8.66,0-12.81,0c0,7.84,0,15.41,0,23.11C115.54,145.7,119.65,145.7,124.15,145.7z"/>
</g>
</svg>
