<?xml version="1.0" encoding="utf-8"?>
<!-- Generator: Adobe Illustrator 24.3.0, SVG Export Plug-In . SVG Version: 6.00 Build 0)  -->
<svg version="1.1" id="Layer_1" xmlns="http://www.w3.org/2000/svg" xmlns:xlink="http://www.w3.org/1999/xlink" x="0px" y="0px"
	 viewBox="0 0 283.46 283.46" style="enable-background:new 0 0 283.46 283.46;" xml:space="preserve">
<style type="text/css">
	.st0{fill:#5D453F;}
</style>
<g>
	<g>
		<path class="st0" d="M141.7,255.12C79.06,255.1,28.27,204.21,28.35,141.53C28.42,79.02,79.31,28.28,141.88,28.35
			c62.56,0.07,113.28,50.9,113.24,113.47C255.08,204.37,204.26,255.14,141.7,255.12z M211.57,141.83c0.07,0,0.14,0,0.2,0
			c0-8.46,0.06-16.93-0.03-25.39c-0.03-3.31-0.16-6.66-0.65-9.93c-2.19-14.5-9.35-25.32-23.42-30.81
			c-5.83-2.28-11.95-3.25-18.18-3.27c-17.76-0.07-35.52-0.07-53.27,0.01c-3.76,0.02-7.57,0.24-11.27,0.86
			c-14.29,2.38-24.88,9.67-30.17,23.6c-2.17,5.7-3.07,11.67-3.07,17.76c-0.01,17.61-0.04,35.21,0.02,52.82
			c0.01,3.24,0.17,6.51,0.67,9.7c2.09,13.46,8.53,23.91,21.31,29.72c6.28,2.86,12.97,4.1,19.82,4.13
			c18.82,0.11,37.63,0.12,56.45-0.01c7.3-0.05,14.43-1.42,21.04-4.72c13.56-6.79,19.53-18.56,20.43-32.98
			C212.09,162.87,211.57,152.33,211.57,141.83z"/>
	</g>
	<g>
		<path class="st0" d="M141.79,85.52c9.22,0,18.44-0.09,27.66,0.05c3.08,0.05,6.2,0.39,9.2,1.08c11.13,2.54,18.32,10.65,19.74,22.06
			c0.31,2.47,0.46,4.97,0.47,7.45c0.04,17.39,0.15,34.77-0.07,52.16c-0.05,4.23-0.71,8.64-2.06,12.64
			c-3.49,10.35-11.36,15.85-21.97,16.44c-13.19,0.73-26.43,0.66-39.65,0.7c-8.76,0.03-17.55-0.02-26.28-0.65
			c-13.34-0.97-22.29-10.01-23.81-23.38c-0.26-2.32-0.42-4.67-0.42-7c-0.03-17.46-0.14-34.92,0.08-52.38
			c0.05-4.08,0.76-8.32,2.07-12.19c3.5-10.36,11.37-15.67,21.97-16.47c9.18-0.69,18.42-0.53,27.63-0.73
			c1.81-0.04,3.63-0.01,5.44-0.01C141.79,85.37,141.79,85.45,141.79,85.52z M141.59,178.59c20.22,0.19,36.84-16.19,37-36.48
			c0.16-20.39-15.99-36.97-36.26-37.23c-20.58-0.27-37.22,15.94-37.45,36.48C104.65,161.86,120.96,178.39,141.59,178.59z
			 M178.94,112.39c4.04-0.05,7.29-3.38,7.23-7.4c-0.06-4.05-3.33-7.27-7.39-7.27c-4.14,0.01-7.46,3.41-7.34,7.53
			C171.56,109.33,174.83,112.44,178.94,112.39z"/>
	</g>
	<g>
		<path class="st0" d="M142.06,117.97c13.26,0.26,23.73,11.01,23.45,24.09c-0.29,13.28-11,23.71-24.09,23.45
			c-13.24-0.26-23.73-11.04-23.45-24.09C118.25,128.14,128.97,117.71,142.06,117.97z"/>
	</g>
</g>
</svg>
