<?xml version="1.0" encoding="utf-8"?>
<!-- Generator: Adobe Illustrator 24.3.0, SVG Export Plug-In . SVG Version: 6.00 Build 0)  -->
<svg version="1.1" id="Layer_1" xmlns="http://www.w3.org/2000/svg" xmlns:xlink="http://www.w3.org/1999/xlink" x="0px" y="0px"
	 viewBox="0 0 283.46 283.46" style="enable-background:new 0 0 283.46 283.46;" xml:space="preserve">
<style type="text/css">
	.st0{fill:#5D453F;}
</style>
<g>
	<path class="st0" d="M268.39,170.72c-4.39-34.96-20.64-63.19-48.95-84.03c-28.78-21.19-61.33-28.64-96.6-23.8
		c-30.09,4.13-55.81,17.14-76.54,39.48c-4.28,4.61-7.92,9.81-11.72,14.85c-1.48,1.97-0.95,4.28,0.87,5.46
		c1.76,1.14,3.73,0.68,5.22-1.22c0.31-0.39,0.54-0.84,0.86-1.22c4.97-5.89,9.95-11.79,14.95-17.66c0.61-0.72,1.42-1.27,2.57-2.29
		c0,1.38,0,2.18,0,2.98c0.01,5.65-0.04,11.3,0.03,16.95c0.08,6.14,2.7,10.92,8.08,13.94c10.34,5.8,22.96-1.64,23.08-13.68
		c0.13-12.55,0.11-25.09-0.04-37.64c-0.03-2.41,0.74-3.62,2.93-4.29c7.13-2.19,14.19-4.59,21.36-6.6c3.69-1.04,7.56-1.42,11.61-2.15
		c0,1.36,0,2.26,0,3.17c0,8.39-0.1,16.79,0.06,25.17c0.05,2.44,0.41,5.02,1.32,7.26c2.73,6.71,9.92,10.34,17.09,8.98
		c7.16-1.35,12.44-7.35,12.56-14.67c0.15-8.97,0.05-17.95,0.06-26.92c0-0.89,0-1.78,0-2.61c0.44-0.1,0.61-0.19,0.76-0.17
		c11.6,1.47,22.75,4.52,33.53,9.07c1.54,0.65,1.56,1.64,1.55,2.93c-0.02,12.46-0.08,24.93,0.04,37.39c0.02,2.36,0.38,4.85,1.22,7.04
		c2.64,6.88,9.86,10.71,17.1,9.38c7.51-1.37,12.66-7.52,12.82-15.54c0.12-5.81,0.02-11.63,0.04-17.45c0-0.68,0.12-1.37,0.19-2.13
		c0.39,0.16,0.57,0.18,0.68,0.28c0.56,0.5,1.12,1,1.65,1.52c22.94,22.54,34.52,49.96,34.99,82.05
		c0.25,17.04-12.57,29.87-29.58,29.93c-7.73,0.02-15.45-0.01-23.18,0.01c-3.03,0.01-4.61,1.27-4.66,3.63
		c-0.05,2.45,1.62,3.83,4.73,3.84c8.06,0.01,16.12,0.07,24.18-0.02c16.41-0.18,30.72-11.42,34.86-27.29
		c0.44-1.68,0.78-3.38,1.16-5.07c0-3.99,0-7.98,0-11.97C268.99,175.31,268.68,173.02,268.39,170.72z M82.79,120.22
		c-0.01,3.83-2.25,6.92-5.59,8c-3.28,1.06-6.95,0.09-8.84-2.82c-0.98-1.51-1.67-3.51-1.71-5.3c-0.19-8.22-0.11-16.44-0.08-24.67
		c0-0.67,0.21-1.65,0.67-1.97c4.96-3.41,9.99-6.71,15.56-10.42c0,2.17,0,3.47,0,4.77C82.8,98.62,82.83,109.42,82.79,120.22z
		 M149.69,99.16c-0.07,4.62-3.65,8.13-8.05,8.1c-4.44-0.02-7.99-3.49-8.02-8.13c-0.07-9.87-0.02-19.74-0.02-29.9
		c5.38,0,10.56,0,16.13,0c0,4.29,0,8.26,0,12.24C149.72,87.37,149.78,93.26,149.69,99.16z M216.85,97.64
		c-0.21,7.47-0.05,14.95-0.08,22.43c-0.02,3.66-1.62,6.44-5.02,7.91c-3.22,1.39-6.38,0.85-8.67-1.73c-1.28-1.45-2.41-3.61-2.44-5.48
		c-0.21-12.13-0.1-24.26-0.09-36.39c0-0.14,0.11-0.29,0.37-0.92c4.3,2.75,8.47,5.57,12.78,8.13
		C216.12,93.02,216.93,94.82,216.85,97.64z"/>
	<path class="st0" d="M194.17,214.74c-0.46-0.44-1.59-0.24-2.41-0.24c-9.39-0.01-18.77-0.01-28.16-0.01
		c-37.63,0-75.26,0.04-112.9-0.02c-16.43-0.02-29.21-12.91-29.19-29.31c0.02-14,2.36-27.59,7.38-40.68c1.31-3.4,2.89-6.7,4.25-10.08
		c0.81-2.01-0.02-3.94-1.92-4.76c-2-0.87-3.56-0.19-4.71,1.54c-0.37,0.55-0.62,1.17-0.9,1.77c-5.97,12.65-9.77,25.95-10.9,39.88
		c-0.54,6.58-0.96,13.41,0.19,19.83c3.13,17.38,18.09,29.25,35.84,29.29c23.18,0.06,46.36,0.01,69.53,0.01c23.59,0,47.19,0,70.78,0
		c0.91,0,1.86,0.08,2.73-0.12c1.81-0.42,3.18-1.72,2.86-3.51C196.42,217.01,195.21,215.75,194.17,214.74z"/>
	<path class="st0" d="M90.1,162.43c0.75-4.16,2.94-6.3,6.4-6.28c3.46,0.02,5.67,2.26,6.31,6.38c0.37,2.39,1.84,3.74,3.95,3.63
		c2.17-0.11,3.52-1.76,3.5-4.29c-0.08-7.19-6.39-13.21-13.84-13.21c-7.33,0-13.49,5.85-13.73,13.04c-0.09,2.61,1.13,4.25,3.3,4.45
		C88.17,166.35,89.63,165.02,90.1,162.43z"/>
	<path class="st0" d="M186.66,148.66c-7.28,0.07-13.52,6.12-13.61,13.19c-0.03,2.54,1.3,4.19,3.48,4.3c2.11,0.11,3.6-1.24,3.97-3.61
		c0.65-4.14,2.84-6.37,6.29-6.4c3.49-0.03,5.67,2.1,6.42,6.26c0.47,2.61,1.92,3.93,4.1,3.74c2.17-0.19,3.4-1.83,3.32-4.43
		C200.39,154.41,194.16,148.59,186.66,148.66z"/>
	<path class="st0" d="M141.77,182.93c5.03-0.19,9.38-1.94,12.88-5.61c1.86-1.96,1.94-4.12,0.28-5.7c-1.57-1.49-3.59-1.35-5.51,0.4
		c-5.06,4.59-10.45,4.59-15.5,0.02c-2-1.81-4.14-1.91-5.69-0.25c-1.49,1.59-1.35,3.65,0.43,5.52
		C132.22,181.04,136.65,182.8,141.77,182.93z"/>
</g>
</svg>
