<?xml version="1.0" encoding="utf-8"?>
<!-- Generator: Adobe Illustrator 24.3.0, SVG Export Plug-In . SVG Version: 6.00 Build 0)  -->
<svg version="1.1" id="Layer_1" xmlns="http://www.w3.org/2000/svg" xmlns:xlink="http://www.w3.org/1999/xlink" x="0px" y="0px"
	 viewBox="0 0 283.46 283.46" style="enable-background:new 0 0 283.46 283.46;" xml:space="preserve">
<style type="text/css">
	.st0{fill:#5D453F;}
</style>
<g>
	<path class="st0" d="M148.82,255.14c-4.72,0-9.45,0-14.17,0c-2.77-0.34-5.54-0.64-8.3-1.03c-22.48-3.23-42.37-12.2-59.38-27.26
		c-19.78-17.51-32.13-39.3-36.86-65.32c-0.76-4.19-1.19-8.44-1.77-12.67c0-4.72,0-9.45,0-14.17c0.14-0.79,0.3-1.58,0.41-2.37
		c0.52-3.87,0.82-7.78,1.58-11.61C36.4,90.28,52.16,66.02,77.65,48.4c24.98-17.26,52.8-23.36,82.71-18.41
		c29.44,4.87,53.41,19.49,71.49,43.2c18.93,24.81,26.21,52.98,22.2,83.89c-2.96,22.77-12.33,42.81-27.64,59.93
		c-17.45,19.51-39.12,31.71-64.93,36.37C157.29,254.13,153.04,254.56,148.82,255.14z M141.73,240.97
		c54.62,0.01,99.12-44.43,99.22-99.08c0.1-54.67-44.49-99.31-99.21-99.31c-54.62-0.01-99.14,44.45-99.22,99.08
		C42.44,196.32,87.03,240.96,141.73,240.97z"/>
	<path class="st0" d="M120.38,167.72c1.04-1.25,1.56-1.98,2.18-2.6c20.97-20.99,41.94-41.99,62.99-62.91
		c1.29-1.28,3.1-2.39,4.84-2.78c2.91-0.66,5.34,0.69,6.97,3.22c1.56,2.43,1.4,5.57-0.35,7.9c-0.48,0.64-1.08,1.21-1.65,1.78
		c-22.96,22.97-45.93,45.93-68.9,68.89c-4.15,4.15-7.83,4.13-12.02-0.05c-9.03-9.03-18.09-18.03-27.08-27.1
		c-4.13-4.16-2.44-10.7,3.05-12.08c2.85-0.71,5.18,0.28,7.21,2.32c6.97,7.01,13.99,13.99,20.97,21
		C119.16,165.89,119.57,166.61,120.38,167.72z"/>
</g>
</svg>
