<?xml version="1.0" encoding="utf-8"?>
<!-- Generator: Adobe Illustrator 24.3.0, SVG Export Plug-In . SVG Version: 6.00 Build 0)  -->
<svg version="1.1" id="Layer_1" xmlns="http://www.w3.org/2000/svg" xmlns:xlink="http://www.w3.org/1999/xlink" x="0px" y="0px"
	 viewBox="0 0 283.46 283.46" style="enable-background:new 0 0 283.46 283.46;" xml:space="preserve">
<style type="text/css">
	.st0{fill:#5D453F;}
</style>
<g>
	<path class="st0" d="M77.77,97.45c-3.57-5.4-3.15-10.34,1.09-15.09c-4.7-3.37-9.33-6.69-13.96-10c-2.23-1.59-4.5-3.13-6.68-4.79
		c-0.53-0.4-1.09-1.16-1.11-1.77c-0.36-9.59,3.26-17.44,10.51-23.83c4.97,3.3,9.87,6.55,14.77,9.8c0.15-0.11,0.29-0.22,0.44-0.33
		c-1.24-3.72-2.37-7.48-3.76-11.14c-0.73-1.92-0.37-2.93,1.42-4c7.01-4.18,14.33-7.52,22.6-7.88c9.91-0.44,18.56,3.41,26.65,8.7
		c0.48,0.32,0.74,1.57,0.55,2.22c-1.03,3.5-2.24,6.94-3.38,10.41c-0.18,0.55-0.31,1.13-0.64,2.37c5.41-3.59,10.29-6.84,15.28-10.15
		c7.25,6.34,10.85,14.2,10.5,23.77c-0.03,0.71-0.77,1.59-1.42,2.06c-6.03,4.39-12.11,8.7-18.18,13.04
		c-0.67,0.48-1.34,0.97-2.11,1.52c4.17,4.72,4.7,9.65,1.11,14.98c10,4.45,19.89,8.85,30.04,13.37c3.97-7.34,10.97-9.9,19.71-9.09
		c0.1-0.86,0.17-1.67,0.28-2.47c1.49-10.82,10.33-17.47,21.18-15.77c12.38,1.94,20.92,9.13,26.73,19.96
		c0.45,0.84,1.47,1.75,2.37,1.93c9.36,1.91,14.44,7.46,15.33,16.98c0.03,0.3,0.07,0.59,0.14,1.11c2.33,0,4.66,0,7.11,0
		c0.54,8.88-1.18,16.98-5.77,24.39c-0.88,1.43-1.25,2.77-1.02,4.47c2.26,16.97,4.44,33.94,6.65,50.92
		c1.27,9.73,2.67,19.45,3.79,29.19c1.14,9.85-7.22,20.33-17.53,22.18c-1.86,0.33-3.78,0.45-5.67,0.45
		c-20.56,0.03-41.12-0.22-61.67,0.12c-10.68,0.18-20.09-4.68-24.01-16.23c-12.92,2.77-26.03,1.22-39.06,1.46
		c-13.09,0.24-26.19,0.16-39.29,0.01c-21.28-0.24-39.09-18.03-39.26-39.32c-0.15-19.19-0.32-38.38,0.05-57.56
		c0.33-16.61,8.34-28.81,23.35-36.05C62.3,103.82,69.96,100.82,77.77,97.45z M82.6,103.49c-0.82,0.3-1.47,0.49-2.08,0.75
		c-6.99,2.99-13.99,5.94-20.95,9.01c-13.65,6.03-20.65,16.58-20.76,31.48c-0.13,18.2-0.04,36.39-0.03,54.59
		c0.02,19.27,14.38,33.69,33.59,33.71c21.39,0.02,42.79,0.03,64.18-0.02c2.42-0.01,4.88-0.21,7.25-0.66
		c4.93-0.93,4.86-1.04,5.5-5.95c3.16-24.37,6.34-48.73,9.55-73.09c0.3-2.26,0.01-4.16-1.24-6.21c-4.41-7.21-5.99-15.14-5.41-23.77
		c2.54,0,4.94,0,7.19,0c0.72-3.22-0.68-5.14-3.19-6.49c-2.21-1.18-4.33-2.54-6.61-3.56c-6.18-2.76-12.53-5.14-18.6-8.11
		c-5.82-2.85-11.74-4.33-18.22-3.75c-2.68,0.24-5.41,0.04-8.27,0.04c0,14.78,0,29.22,0,43.72c-2.48,0-4.79,0-7.34,0
		c0-14.64,0-29.13,0-43.59c-2.51,0-4.76,0-7.26,0c0,17.05,0,33.98,0,50.88c-2.56,0-4.87,0-7.32,0
		C82.6,136.08,82.6,119.89,82.6,103.49z M166.3,152.73c-0.61,4.55-1.23,9.05-1.82,13.56c-2.8,21.57-5.56,43.15-8.42,64.71
		c-1.15,8.66,5.04,16.54,13.72,16.6c22.3,0.15,44.61,0.11,66.91,0.02c6.63-0.03,12.44-4.85,13.61-11.37
		c0.47-2.61,0.13-5.44-0.21-8.12c-2.15-16.98-4.4-33.94-6.61-50.91c-1.06-8.14-2.13-16.27-3.21-24.49
		C215.59,152.73,191.03,152.73,166.3,152.73z M87.11,41.07c3.32,10,6.62,19.91,9.96,29.97c-2.42,0.81-4.56,1.52-6.88,2.3
		c-0.95-2.82-1.82-5.48-2.76-8.11c-0.25-0.69-0.52-1.56-1.06-1.94c-5.82-3.97-11.71-7.86-17.63-11.81
		c-2.38,2.98-3.51,6.23-4.16,9.71c-0.25,1.32,0.11,2.08,1.2,2.84c6.84,4.82,13.62,9.72,20.47,14.53c0.75,0.53,1.78,0.9,2.69,0.9
		c10.43,0.06,20.86,0.05,31.28,0.01c0.79,0,1.71-0.18,2.33-0.61c7.09-4.99,14.14-10.04,21.17-15.12c0.47-0.34,1-1.1,0.94-1.6
		c-0.43-3.89-1.61-7.51-4.24-10.65c-5.83,3.89-11.54,7.65-17.19,11.51c-0.67,0.46-1.15,1.38-1.45,2.18
		c-0.97,2.62-1.82,5.29-2.78,8.12c-2.35-0.78-4.54-1.51-6.89-2.3c3.38-10.17,6.67-20.08,9.94-29.94
		C110.34,34.02,98.85,34.04,87.11,41.07z M159.7,130.81c0.46,4.72,2.04,8.86,4.23,12.82c0.72,1.3,1.58,1.73,3.06,1.72
		c12.25-0.07,24.5-0.04,36.76-0.04c11.95,0,23.9,0.01,35.84-0.03c0.81,0,2-0.22,2.36-0.77c2.7-4.12,4.43-8.62,4.86-13.71
		C217.81,130.81,188.91,130.81,159.7,130.81z M104.61,86.83c-5.79,0-11.57-0.01-17.36,0c-2.89,0.01-4.56,1.35-4.58,3.62
		c-0.02,2.28,1.66,3.68,4.52,3.68c11.57,0.01,23.15,0.01,34.72,0c2.89,0,4.56-1.35,4.58-3.62c0.02-2.28-1.66-3.67-4.53-3.68
		C116.19,86.82,110.4,86.83,104.61,86.83z M222.24,105.79c-4.38-9.81-17.66-17.42-25.92-14.59c4.54,1.36,8.28,3.77,10.46,7.59
		c2.12,3.71,3.36,7.92,4.97,11.9c1.39-0.77,3.07-1.82,4.84-2.66C218.37,107.19,220.25,106.57,222.24,105.79z M174.54,109.4
		c7.39,3.16,9.62,5.41,13.19,13.03c0.18,0.39,0.68,0.89,1.05,0.9c3.61,0.07,7.23,0.04,10.95,0.04
		C195.85,114.15,182.61,106.82,174.54,109.4z M204.7,116.71c0.14-0.07,0.28-0.14,0.41-0.21c-0.62-2.54-1.36-5.07-1.84-7.64
		c-1.33-7.12-6.4-11.33-13.92-11.28c-0.17,0.85-0.36,1.73-0.52,2.62c-0.39,2.21,0.14,3.59,2.37,4.91c3.62,2.15,6.85,4.98,10.12,7.68
		C202.63,113.89,203.58,115.39,204.7,116.71z M231.99,113.15c-7.19-3.08-20.3,4.83-22.47,10.23c3.07,0,6.1,0.04,9.13-0.03
		c0.57-0.01,1.38-0.33,1.65-0.76C223.06,118.09,226.81,114.85,231.99,113.15z M167.13,123.37c4.26,0,8.21,0,12.15-0.01
		c0.2,0,0.4-0.11,0.6-0.16c-1.55-4.46-6.6-7.43-12.75-7.34C167.13,118.29,167.13,120.74,167.13,123.37z M239.94,123.26
		c-0.3-1.41-0.57-2.67-0.85-4.01c-3.64,0.72-7.17,0.87-9.85,4.01C232.92,123.26,236.29,123.26,239.94,123.26z"/>
	<path class="st0" d="M82.57,218.41c0,2.54,0,4.79,0,7.17c-10.23,0.45-20.37,1.04-28.49-6.92c-5.13-5.02-7.78-11.08-7.98-18.39
		c2.47,0,4.79,0,7.22,0c0.32,5.25,2.15,9.79,6.06,13.34c3.4,3.08,7.42,4.7,12.01,4.78C75.04,218.47,78.68,218.41,82.57,218.41z"/>
	<path class="st0" d="M97.18,218.59c0,2.39,0,4.63,0,7.01c-2.39,0-4.7,0-7.11,0c0-2.34,0-4.59,0-7.01
		C92.37,218.59,94.67,218.59,97.18,218.59z"/>
	<path class="st0" d="M196.05,225.73c-11.77-0.02-19.84-9.41-18.2-21.17c2.1-15.05,15.01-27.89,30.04-29.87
		c11.75-1.55,21.01,6.58,20.96,18.42C228.78,209.37,212.31,225.75,196.05,225.73z M213.57,182.36c-9.29-1.37-16.33,2.81-22.08,9.49
		c-4.8,5.57-7.63,11.94-5.75,19.61c8.68-1.08,12.75-4.35,13.83-11.44C200.87,191.38,205.49,185.6,213.57,182.36z M193.11,217.89
		c8.69,1.39,15.47-2.41,21.12-8.5c5.31-5.72,8.45-12.35,6.63-20.64c-1.19,0.18-2.16,0.31-3.11,0.48
		c-5.88,1.08-9.58,4.75-10.72,10.63c-0.26,1.34-0.44,2.71-0.81,4.02C204.27,210.78,199.65,215.16,193.11,217.89z"/>
</g>
</svg>
