<svg width="91" height="70" viewBox="0 0 91 70" fill="none" xmlns="http://www.w3.org/2000/svg">
<path d="M60.6562 37.5512C58.3844 42.1125 54.585 42.1478 50.3905 41.0613C49.3004 43.2203 47.6035 44.582 45.2541 45.1111C45.0671 45.1535 44.8942 45.3757 44.7672 45.5486C44.1816 46.3564 43.6137 47.1784 42.9646 48.0991C43.1162 48.332 43.3808 48.7165 43.6242 49.1151C44.605 50.7167 45.1659 52.4559 45.1306 54.3397C45.12 54.9818 45.3775 55.3099 45.8503 55.712C47.2719 56.9115 48.7853 58.0686 49.946 59.5008C52.3202 62.4289 51.6746 65.3569 48.3902 67.2231C45.5081 68.8635 42.3084 69.3538 39.0629 69.5232C37.0556 69.6255 35.0412 69.6466 33.0692 69.0116C32.466 68.8176 31.7251 69.0505 31.0513 69.0998C25.9996 69.4844 21.096 68.9587 16.5029 66.6586C13.5819 65.1946 11.31 63.0497 9.81074 60.1182C9.6414 59.7866 9.37682 59.4867 9.10519 59.2221C2.40246 52.724 -0.613771 44.8183 0.102362 35.5298C0.38811 31.8433 1.35119 28.2979 2.85401 24.9042C3.01276 24.5443 3.16445 24.0928 3.09037 23.7294C2.55062 21.1259 3.49606 19.0199 5.1788 17.1325C8.46666 13.446 12.0403 10.0664 15.9878 7.08902C18.7924 4.9759 21.731 3.07797 25.0965 1.96672C30.7867 0.0934874 35.9655 0.851954 40.4845 5.00765C40.7244 5.22989 41.2289 5.3322 41.5605 5.25812C46.203 4.24918 50.8808 3.81879 55.6151 4.36207C60.4022 4.9124 64.8966 6.36583 68.8512 9.15275C70.0542 9.99941 70.929 11.3117 71.9768 12.3877C72.2449 12.6629 72.573 12.9733 72.9222 13.0544C75.568 13.6824 78.0622 14.6666 80.394 16.0671C81.9815 17.0196 82.5036 18.2473 82.1861 20.0394C82.1367 20.3146 82.3448 20.7449 82.5706 20.9354C84.6767 22.7099 86.5852 24.6749 87.9152 27.0843C88.7477 28.5942 89.4497 30.2417 89.8413 31.9103C90.4834 34.6337 89.1569 36.7786 86.5076 37.6852C82.3166 39.121 78.2139 38.8106 74.2557 36.8456C73.6595 36.5493 73.1939 36.5493 72.5977 36.7751C68.7348 38.2532 64.8013 38.7929 60.6562 37.5512ZM5.81732 21.9479C5.8914 22.0114 5.96901 22.0714 6.0431 22.1349C6.34648 22.0255 6.64987 21.9126 6.94973 21.8033C10.8514 20.3745 14.866 19.7678 19.0041 20.304C24.8319 21.0589 29.7037 23.807 33.997 27.6876C38.2973 31.5751 41.5993 36.2212 44.171 41.3894C44.5662 42.1831 44.9472 42.1902 45.6033 41.8691C46.9227 41.2271 47.787 40.1299 48.0833 38.7753C48.4678 37.0255 48.8418 35.1981 48.7465 33.4307C48.2809 24.5973 45.2823 16.5998 40.294 9.34325C38.5337 6.7821 36.1772 4.90887 33.0551 4.22801C29.9965 3.56127 27.0826 4.21037 24.3239 5.50859C17.3037 8.81409 11.8851 14.1057 6.86506 19.856C6.37118 20.4275 6.15951 21.2459 5.81732 21.9479ZM8.08567 53.4931C8.14564 52.8475 8.18091 52.4347 8.21972 52.0255C8.68186 47.3019 10.9784 43.7494 15.1271 41.4811C18.937 39.3997 23.0116 39.2551 27.1426 40.2746C31.6299 41.3788 35.8597 43.1426 39.846 45.4851C40.1177 45.6438 40.5375 45.8132 40.7809 45.7144C41.8321 45.2805 42.2061 44.1269 41.6981 43.1109C41.4864 42.6876 41.2677 42.2642 41.0384 41.8515C37.8352 36.0836 33.9547 30.8661 28.4161 27.1231C21.537 22.47 14.224 21.8844 6.60401 25.1617C6.25476 25.3099 5.85613 25.5991 5.71149 25.9272C3.04451 32.0514 2.06379 38.359 3.81709 44.9206C4.64258 47.9757 6.01135 50.7767 8.08567 53.4931ZM30.0001 66.1718C27.2061 60.2769 35.6692 51.0942 41.938 53.2285C41.938 53.1015 41.9486 52.9851 41.9344 52.8757C41.9098 52.6993 41.8745 52.5265 41.8321 52.3536C41.2536 50.0182 39.5744 48.6001 37.5671 47.6158C34.9671 46.3423 32.3002 45.1711 29.5979 44.1339C26.7016 43.0192 23.6995 42.4124 20.5386 42.8181C15.6668 43.446 11.9979 46.8926 11.2077 51.7186C10.4528 56.3259 12.9716 61.3106 17.3319 63.72C21.2548 65.8861 25.5128 66.3764 30.0001 66.1718ZM69.1475 13.5801C64.3604 7.64993 51.7169 5.67439 43.1974 8.1156C43.208 8.17204 43.208 8.23907 43.2362 8.2814C43.4267 8.58126 43.6348 8.87053 43.8183 9.17392C49.1981 18.085 52.6518 27.5006 51.4982 38.1791C54.6908 39.6184 57.3825 38.5142 58.4161 35.1029C59.0652 32.958 59.5168 30.7391 59.8942 28.5272C60.2893 26.2165 60.6421 23.9129 61.6511 21.7645C63.2915 18.2826 65.7785 15.5768 69.1475 13.5801ZM61.8239 34.7466C64.7555 35.4804 67.6588 35.3251 70.5516 34.4115C71.3947 34.1469 71.691 33.6953 71.8604 32.8204C72.8376 27.7264 74.5168 22.9745 78.8771 19.676C79.4803 19.221 79.3533 18.9176 78.7607 18.5719C76.6475 17.3371 74.4109 16.4164 72.0085 15.9437C71.6205 15.8661 71.116 15.9366 70.7738 16.1306C66.8016 18.399 64.2722 21.7786 63.3162 26.2482C62.7305 29.0211 62.3319 31.8362 61.8239 34.7466ZM37.6518 66.6128C40.4669 66.5563 43.2186 66.1647 45.8467 65.1488C48.7889 64.0128 49.1628 62.5664 46.8451 60.4392C45.1129 58.8482 43.1057 57.5359 41.1231 56.2588C40.5692 55.899 39.585 55.8672 38.9182 56.0754C35.6162 57.102 33.489 59.3703 32.533 62.6829C32.0285 64.4326 33.108 66.0801 34.9072 66.3835C35.8103 66.5316 36.7381 66.5422 37.6518 66.6128ZM79.9283 22.664C76.7569 25.6344 75.5998 29.4409 74.7567 33.3884C74.7249 33.533 74.9225 33.8223 75.0847 33.9035C78.1504 35.4098 81.3324 36.1365 84.719 35.1664C86.8886 34.5455 87.4142 33.5507 86.7687 31.3882C86.7016 31.1624 86.6205 30.9366 86.5252 30.7214C85.0789 27.4336 82.7576 24.8689 79.9283 22.664Z" fill="#5D453F"/>
<path d="M77.2544 51.2106C74.3934 51.1895 72.058 48.84 72.0615 45.986C72.0651 43.1039 74.478 40.7156 77.3496 40.7544C80.26 40.7932 82.5636 43.1638 82.5284 46.0813C82.4896 48.9388 80.1295 51.2318 77.2544 51.2106ZM79.5192 45.986C79.5192 44.769 78.5526 43.7741 77.3426 43.7459C76.122 43.7177 75.0601 44.7584 75.0601 45.986C75.0601 47.2278 76.0867 48.2226 77.3461 48.2015C78.5808 48.1873 79.5227 47.2243 79.5192 45.986Z" fill="#5D453F"/>
<path d="M63.0975 45.2769C63.0763 46.0671 62.3814 46.7444 61.5947 46.7374C60.7727 46.7303 60.0636 45.9789 60.113 45.1675C60.1589 44.3773 60.8786 43.7176 61.6617 43.7494C62.4484 43.7847 63.1187 44.4937 63.0975 45.2769Z" fill="#5D453F"/>
<path d="M67.6095 45.2277C66.7946 45.2418 66.1385 44.6139 66.1138 43.7954C66.0891 42.9629 66.6888 42.3138 67.5108 42.2785C68.3786 42.2432 69.0524 42.8817 69.0524 43.7425C69.0559 44.5645 68.428 45.2136 67.6095 45.2277Z" fill="#5D453F"/>
<path d="M34.438 8.7117C34.4663 9.79471 33.5949 10.599 32.6706 10.3309C30.2153 9.62538 27.9399 10.1087 25.8656 11.4245C23.5232 12.9097 21.2831 14.5642 19.0041 16.1517C18.6902 16.3704 18.4185 16.6562 18.0904 16.8573C17.4413 17.2559 16.6123 17.1148 16.1749 16.5292C15.7163 15.9118 15.6351 15.1675 16.2137 14.663C20.006 11.3646 23.883 8.13667 28.9982 7.1736C30.367 6.91607 31.8698 7.27237 33.295 7.45582C34.0006 7.54754 34.3922 8.11198 34.438 8.7117Z" fill="#5D453F"/>
</svg>
