<?xml version="1.0" encoding="utf-8"?>
<!-- Generator: Adobe Illustrator 24.3.0, SVG Export Plug-In . SVG Version: 6.00 Build 0)  -->
<svg version="1.1" id="Layer_1" xmlns="http://www.w3.org/2000/svg" xmlns:xlink="http://www.w3.org/1999/xlink" x="0px" y="0px"
	 viewBox="0 0 283.46 283.46" style="enable-background:new 0 0 283.46 283.46;" xml:space="preserve">
<style type="text/css">
	.st0{fill:#5D453F;}
</style>
<g>
	<path class="st0" d="M257.12,146.14c-0.44,1.92-0.82,3.87-1.34,5.77c-4.24,15.74-18.64,27.05-34.93,27.4
		c-4.57,0.1-9.15-0.03-13.73,0.09c-0.77,0.02-1.89,0.54-2.21,1.16c-4.07,7.92-9.03,15.21-14.96,21.85
		c-0.14,0.15-0.22,0.36-0.52,0.87c0.97,0,1.74,0,2.51,0c13.36,0,26.72,0,40.08,0c4.13,0,5.76,1.73,5.58,5.85
		c-0.59,13.03-11.73,23.95-24.81,24.24c-4.79,0.1-9.59,0.02-14.48,0.02c-0.22,0.7-0.41,1.32-0.6,1.95
		c-2.84,9.29-11.25,15.73-21,15.76c-28.49,0.07-56.98,0.07-85.48,0c-9.83-0.02-18.25-6.54-21.05-15.97
		c-0.15-0.49-0.3-0.98-0.53-1.72c-4.52,0-9.07,0.09-13.61-0.02c-9.76-0.24-17.22-4.57-22.28-12.92c-2.14-3.54-3.2-7.44-3.41-11.55
		c-0.19-3.87,1.5-5.61,5.35-5.62c5.6-0.02,11.19,0,16.38,0c-0.9-3.72-2.34-7.35-2.58-11.06c-0.51-7.89,2.55-14.71,7.77-20.54
		c1.05-1.17,1.17-2.07,0.67-3.5c-3.67-10.47-5.33-21.29-5.38-32.36c-0.04-8.41-0.02-16.83,0-25.24c0.01-4.12,1.52-5.64,5.6-5.64
		c18.23-0.01,36.46,0,54.7,0c0.44,0,0.89-0.02,1.33,0.02c2.42,0.17,4.19,1.96,4.26,4.26c0.07,2.28-1.62,4.22-4.01,4.52
		c-0.73,0.09-1.47,0.05-2.21,0.05c-15.94,0-31.89,0-47.83,0c-0.88,0-1.76,0-2.95,0c0.17,17.02-1.43,34.03,4.66,50.6
		c1.08-0.46,2.13-0.93,3.2-1.36c5.81-2.31,11.74-2.9,17.74-0.89c10.06,3.37,15.43,13.83,13,25.04c-1.32,6.09-4.33,11.23-8.84,15.9
		c0.8,0.08,1.33,0.18,1.86,0.18c27.24,0.01,54.47,0.02,81.71-0.05c1.03,0,2.31-0.52,3.06-1.24c18.87-17.97,28.3-40.08,28.66-66.08
		c0.09-6.71,0.02-13.43,0.01-20.15c0-0.58-0.06-1.15-0.11-1.96c-0.98,0-1.84,0-2.7,0c-16.02,0-32.04,0-48.05,0
		c-0.74,0-1.48,0.04-2.21-0.06c-2.37-0.32-4.04-2.3-3.94-4.58c0.1-2.31,1.88-4.05,4.31-4.2c0.66-0.04,1.33-0.02,1.99-0.02
		c21.04,0,42.07,0,63.11,0c19.67,0,34.66,12.77,37.83,32.2c0.06,0.35,0.24,0.69,0.36,1.03
		C257.12,140.82,257.12,143.48,257.12,146.14z M228.1,212.21c-62.86,0-125.42,0-188.18,0c0.19,0.66,0.3,1.21,0.51,1.74
		c2.43,6.22,8.5,10.47,15.27,10.56c5.68,0.08,11.37,0.01,17.05,0.03c3.7,0.01,5.19,1.44,5.44,5.15c0.46,7.01,6.03,12.52,13.04,12.53
		c28.49,0.06,56.98,0.06,85.46,0c7.02-0.01,12.6-5.5,13.07-12.51c0.25-3.74,1.72-5.16,5.41-5.17c5.61-0.02,11.22,0.01,16.83-0.01
		c3.73-0.02,7.11-1.17,10.08-3.43C225.03,218.84,227.06,215.97,228.1,212.21z M215.5,124.42c1.69,0,3.15-0.02,4.62,0
		c9.14,0.14,16.7,7.16,17.46,16.19c0.77,9.14-5.56,17.42-14.72,18.85c-3.39,0.53-6.89,0.39-10.32,0.55
		c-1.05,3.46-2.09,6.88-3.16,10.39c4.3,0,8.46,0.27,12.55-0.09c3.04-0.27,6.16-0.99,8.97-2.16c13.29-5.51,20.23-20.2,16.23-33.9
		c-4-13.67-17.87-22.57-31.64-20.21C215.5,117.4,215.5,120.76,215.5,124.42z M59.26,196.56c2.79-8.29,8.45-12.58,16.13-14.96
		c4.9-1.52,7.78-6.93,6.89-11.67c-7.88-0.9-14.04,2.39-18.93,8.24C59.05,183.32,57,189.19,59.26,196.56z M67.73,203.1
		c7.67,0.83,13.77-2.24,18.64-7.89c4.48-5.2,6.62-11.14,4.52-18.43c-1.05,2.02-1.81,3.78-2.83,5.37c-2.87,4.49-7.01,7.22-12.09,8.72
		C70.33,192.54,66.94,197.54,67.73,203.1z M214.47,150.95c2.13,0,4.2,0.15,6.25-0.03c4.32-0.37,7.7-3.88,8.02-8.11
		c0.33-4.36-2.52-8.44-6.87-9.26c-2.03-0.39-4.2-0.07-6.26-0.07C215.23,139.28,214.86,145.01,214.47,150.95z"/>
	<path class="st0" d="M135.31,24.35c3.79,2.59,4.11,4.89,1.13,8.31c-5.99,6.9-5.79,16.42,0.65,23.27
		c5.23,5.56,7.86,12.04,7.51,19.67c-0.29,6.36-2.71,11.88-7.06,16.52c-2,2.13-4.57,2.32-6.49,0.61c-1.93-1.73-1.98-4.25-0.12-6.51
		c6.81-8.23,6.58-16.7-0.66-24.61c-9.28-10.15-9.35-25.24-0.14-35.16c0.74-0.79,1.67-1.41,2.51-2.1
		C133.54,24.35,134.42,24.35,135.31,24.35z"/>
	<path class="st0" d="M165.3,88.87c0.25-0.5,0.59-1.64,1.29-2.52c4.54-5.71,4.41-10.99-0.52-16.44c-7.01-7.76-7.18-19.07-0.4-26.81
		c2.27-2.59,4.81-3.03,6.92-1.18c2.03,1.77,1.99,4.3-0.11,6.84c-4.19,5.06-3.91,10.75,0.77,15.92c7.33,8.08,7.24,20.32-0.19,27.64
		c-1.44,1.42-3.07,2-5.02,1.18C166.31,92.77,165.42,91.43,165.3,88.87z"/>
	<path class="st0" d="M98.39,78.34c-0.04-3.46-1.67-6.14-3.92-8.63c-5.67-6.27-6.86-14.97-3.03-22.41c0.93-1.81,2.21-3.49,3.58-5
		c1.76-1.94,4.31-1.97,6.14-0.35c1.77,1.56,1.94,4.17,0.41,6.18c-4.9,6.42-4.75,10.88,0.56,16.91c6.77,7.69,6.79,19.09,0.05,26.67
		c-2.17,2.44-4.71,2.86-6.77,1.11c-2.08-1.76-2.08-4.29,0.01-6.82C97.47,83.5,98.42,81.04,98.39,78.34z"/>
	<path class="st0" d="M133.9,104.95c2.47-0.04,4.51,1.97,4.49,4.43c-0.02,2.35-1.99,4.35-4.33,4.39c-2.41,0.05-4.51-2.04-4.49-4.46
		C129.58,106.94,131.52,104.98,133.9,104.95z"/>
</g>
</svg>
