<?xml version="1.0" encoding="utf-8"?>
<!-- Generator: Adobe Illustrator 24.3.0, SVG Export Plug-In . SVG Version: 6.00 Build 0)  -->
<svg version="1.1" id="Layer_1" xmlns="http://www.w3.org/2000/svg" xmlns:xlink="http://www.w3.org/1999/xlink" x="0px" y="0px"
	 viewBox="0 0 283.46 283.46" style="enable-background:new 0 0 283.46 283.46;" xml:space="preserve">
<style type="text/css">
	.st0{fill:#5D453F;}
</style>
<g>
	<path class="st0" d="M49.48,182.07c-4.47,0-8.53,0.04-12.59-0.01c-12.07-0.14-21.32-9.33-21.34-21.42
		c-0.01-7.77,0.27-15.54,0.47-23.31c0.02-0.96,0.26-1.93,0.49-2.87c1.06-4.24,2.05-8.06-0.23-12.68
		c-2.34-4.74-0.47-10.27,1.15-15.25c5.07-15.67,19.53-26.22,36.04-26.29c2.05-0.01,3.44-0.64,4.81-2.07
		c2.92-3.05,4.88-3.01,7.86-0.07c1.37,1.35,2.69,2.74,4.57,4.68c0-2.47-0.02-4.19,0-5.9c0.05-3.95,2.14-5.68,5.95-4.92
		c6.58,1.31,13.15,2.7,19.75,3.89c0.98,0.18,2.36-0.25,3.14-0.9c1.96-1.64,3.67-3.58,5.49-5.38c3.1-3.06,5.39-2.87,8.07,0.66
		c1.98,2.61,4.05,5.15,5.85,7.87c1.13,1.71,2.45,2.13,4.4,2.12c24.23-0.06,48.46-0.04,72.69-0.04c18.79,0,31.75,9.19,38.58,26.66
		c1.6,4.08,4.13,7.75,9.23,9.32c15.67,4.81,26.24,19.22,26.27,35.38c0.01,2.67-1.4,5.34-2.11,8.03c-0.23,0.85-0.65,1.85-0.41,2.59
		c2.05,6.02,2.82,12.19,2.65,18.53c-0.16,5.91,0.32,11.91-0.5,17.72c-1.47,10.39-10.22,17.55-20.75,17.61
		c-15.47,0.08-30.95,0.02-46.42,0.03c-43.33,0-86.66,0-129.99,0c-14.35,0-23.13-8.78-23.13-23.11
		C49.48,189.4,49.48,185.88,49.48,182.07z M60,165.1c-0.54,2.4-1.37,4.61-1.48,6.86c-0.33,7.05-0.48,14.12-0.53,21.18
		c-0.08,9.36,5.03,14.39,14.4,14.39c35.46,0,70.92,0,106.38,0c23.26,0,46.51,0.02,69.77-0.01c7.78-0.01,13.16-5.42,13.22-13.19
		c0.04-5.92,0.2-11.86-0.09-17.77c-0.19-3.83-1.1-7.62-1.69-11.48c-1.05,0-1.57,0-2.09,0c-21.05,0-42.09,0.01-63.14,0.01
		c-15.74,0-31.48-0.03-47.22,0.01c-7.61,0.02-13.02,5.45-13.12,13.02c-0.02,1.41,0.03,2.83-0.02,4.24
		c-0.23,6.93-5.8,12.4-12.65,12.43c-6.97,0.04-12.61-5.49-12.8-12.54c-0.05-1.68,0.04-3.36-0.04-5.04
		c-0.32-6.56-5.59-11.99-12.15-12.07C84.63,165,72.52,165.1,60,165.1z M213.18,130.38c-1.03,2.55-1.69,4.27-2.42,5.95
		c-1.45,3.36-3.96,4.17-7.03,2.22c-2.46-1.56-4.96-3.09-7.26-4.88c-1.66-1.29-2.64-0.93-3.94,0.47c-2.53,2.72-5.2,5.31-7.86,7.9
		c-2.54,2.47-4.61,2.48-7.12,0.02c-3.41-3.34-6.81-6.7-10.12-10.14c-1.2-1.25-2.74-2.63-3.04-4.16c-0.31-1.54,0.72-3.35,1.19-5.13
		c-0.26,0-0.77,0-1.29,0c-25.47,0-50.94-0.06-76.42,0.02c-16.24,0.06-29.44,12.73-29.87,28.43c-0.1,3.89,1.43,5.5,5.35,5.5
		c10.52,0.02,21.05,0,31.57,0.02c1.41,0,2.84,0.03,4.23,0.23c10.18,1.44,18.88,10.28,18.28,23.01c-0.2,4.38,1.25,6.38,4.11,6.45
		c2.95,0.07,4.35-2.02,4.35-6.52c0.01-14.42,8.73-23.18,23.07-23.18c35.38,0,70.76,0,106.13,0c0.8,0,1.6,0.04,2.39-0.02
		c2.63-0.19,4.15-1.79,4.27-4.46c0.46-10.2-6.98-22.18-16.36-26.29c-0.55-0.24-1.36-0.33-1.89-0.11
		c-6.04,2.47-12.12,4.84-18.04,7.58C220.77,135.48,216.54,136.67,213.18,130.38z M189,116.22c0.2-0.13,0.39-0.26,0.59-0.39
		c0-1.68-0.02-3.35,0-5.03c0.06-3.95,2.14-5.65,5.98-4.89c4.94,0.98,10.03,1.5,14.77,3.07c5.22,1.73,8.77,0.41,12-3.74
		c1.18-1.51,1.26-2.33,0.2-3.78c-5.98-8.19-14.01-12.64-24.13-12.74c-16.18-0.16-32.37-0.05-48.55-0.05c-7.87,0-15.73,0-23.85,0
		c-0.23,2.89-2.39,3.85-4.67,4.74c-5.1,1.99-10.33,3.72-15.22,6.14c-4.64,2.3-8.36,2.31-11.52-2.14c-0.07-0.09-0.3-0.06-0.65-0.12
		c-0.68,1.67-1.33,3.39-2.07,5.07c-1.46,3.36-3.96,4.17-7.02,2.23c-2.54-1.61-5.09-3.21-7.49-5.02c-1.48-1.12-2.36-0.82-3.53,0.41
		c-2.54,2.7-5.21,5.29-7.86,7.9c-2.76,2.72-4.77,2.73-7.51,0.03c-3.52-3.48-6.95-7.06-10.53-10.48c-2.27-2.17-3.86-4.36-1.57-7.63
		c-12.28,2.42-22.22,14.9-22.36,27.63c-0.04,3.55,1.53,5.17,5.15,5.18c10.88,0.02,21.76,0.03,32.63-0.03
		c0.99-0.01,2.17-0.25,2.93-0.82c7.4-5.47,15.7-7.7,24.85-7.67c27.15,0.09,54.3,0,81.45,0.08c2.71,0.01,4.84-0.42,6.74-2.61
		c2.09-2.42,4.35-2.28,6.68-0.06C186.03,113.02,187.49,114.65,189,116.22z M26.07,131.24c-0.5,2.07-1.39,4.17-1.47,6.31
		c-0.32,8.19-0.65,16.4-0.45,24.6c0.13,5.69,4.84,10.61,10.61,11.18c4.87,0.48,9.82,0.1,14.78,0.1c0.46-2.38,0.69-4.68,1.38-6.84
		c1.08-3.38,2.05-6.52-0.49-9.81c-0.86-1.11-0.98-3.06-0.87-4.58c0.24-3.33,0.49-6.73,1.39-9.91c1.07-3.76,2.83-7.32,4.32-11.05
		C45.71,131.24,36.03,131.24,26.07,131.24z M98.05,89.32c1.45,0.8,3.22,2.61,4.38,2.28c4.18-1.18,8.16-3.09,12.49-4.83
		c-2.2-2.94-4.23-5.65-6.19-8.25C105.23,82.06,101.9,85.42,98.05,89.32z M216.86,123.27c1.54,0.83,3.31,2.62,4.49,2.29
		c4.18-1.18,8.15-3.09,12.45-4.82c-2.21-2.95-4.25-5.66-6.21-8.28C224.06,116.01,220.73,119.37,216.86,123.27z M79.39,81.16
		c-0.8,9.16,0.18,11.16,6.45,13.4c1.46-3.64,2.92-7.28,4.47-11.18C86.58,82.62,83.06,81.9,79.39,81.16z M198.32,115.13
		c-1.07,8.7-0.14,10.66,6.37,13.46c1.47-3.69,2.95-7.37,4.5-11.27C205.41,116.56,201.97,115.86,198.32,115.13z M68.46,92.93
		c-2.07-2.15-4.13-4.29-6.08-6.31c-2.18,2.22-4.31,4.38-6.31,6.42c1.96,2.03,4.02,4.16,6.14,6.36C64.33,97.2,66.4,95.07,68.46,92.93
		z M181.22,120.58c-2.16,2.18-4.29,4.34-6.32,6.39c2,2.06,4.07,4.2,6.05,6.24c2.18-2.21,4.32-4.36,6.24-6.32
		C185.22,124.8,183.17,122.65,181.22,120.58z"/>
</g>
</svg>
